# xmcd
#
# Track frame offsets: 
#        150
#        15018
#        38682
#        60649
#        76828
#        92590
#        115367
#        127222
#        141850
#        154546
#        165583
#        174208
#        189760
#        205690
#        221118
#        246670
#        264230
#        295184
#        311410
#        330817
#        344566
#
# Disc length: 4759 seconds
#
# Revision: 1
# Processed by: cddbd v1.5.1PL2 Copyright (c) Steve Scherf et al.
# Submitted via: ExactAudioCopy v0.95b4
#
DISCID=18129515
DTITLE=B.B.King - Black Jack (21 Essentail Classics)
DYEAR=2003
DGENRE=Blues
TTITLE0=B.B. Boogie
TTITLE1=You've Done Lost Your Good Thing Now
TTITLE2=The Thrill Is Gone
TTITLE3=It's My Own Fault Baby
TTITLE4=The Letter
TTITLE5=Every Day I Have The Blues
TTITLE6=Payin' The Cost To Be The Boss
TTITLE7=Mr. Pawnbroker
TTITLE8=Please Love Me
TTITLE9=Catfish Blues
TTITLE10=A New Way Of Driving
TTITLE11=Walkin' Cryin'
TTITLE12=Long Nights
TTITLE13=How Blue Can You Get
TTITLE14=Guess Who
TTITLE15=That Evil Child
TTITLE16=Outside Help
TTITLE17=The Other Night Blues
TTITLE18=Sweet Sixteen
TTITLE19=Save A Seat For Me
TTITLE20=From The Bottom
EXTD=
EXTT0=
EXTT1=
EXTT2=
EXTT3=
EXTT4=
EXTT5=
EXTT6=
EXTT7=
EXTT8=
EXTT9=
EXTT10=
EXTT11=
EXTT12=
EXTT13=
EXTT14=
EXTT15=
EXTT16=
EXTT17=
EXTT18=
EXTT19=
EXTT20=
PLAYORDER=
